<?xml version="1.0" encoding="utf-8" standalone="no"?>
<!DOCTYPE svg PUBLIC "-//W3C//DTD SVG 1.1//EN"
  "http://www.w3.org/Graphics/SVG/1.1/DTD/svg11.dtd">
<svg xmlns:xlink="http://www.w3.org/1999/xlink" width="432pt" height="288pt" viewBox="0 0 432 288" xmlns="http://www.w3.org/2000/svg" version="1.1">
 <metadata>
  <rdf:RDF xmlns:dc="http://purl.org/dc/elements/1.1/" xmlns:cc="http://creativecommons.org/ns#" xmlns:rdf="http://www.w3.org/1999/02/22-rdf-syntax-ns#">
   <cc:Work>
    <dc:type rdf:resource="http://purl.org/dc/dcmitype/StillImage"/>
    <dc:date>2024-11-27T21:01:39.668670</dc:date>
    <dc:format>image/svg+xml</dc:format>
    <dc:creator>
     <cc:Agent>
      <dc:title>Matplotlib v3.7.5, https://matplotlib.org/</dc:title>
     </cc:Agent>
    </dc:creator>
   </cc:Work>
  </rdf:RDF>
 </metadata>
 <defs>
  <style type="text/css">*{stroke-linejoin: round; stroke-linecap: butt}</style>
 </defs>
 <g id="figure_1">
  <g id="patch_1">
   <path d="M 0 288 
L 432 288 
L 432 0 
L 0 0 
L 0 288 
z
" style="fill: none"/>
  </g>
  <g id="axes_1">
   <g id="patch_2">
    <path d="M 54 252 
L 388.8 252 
L 388.8 34.56 
L 54 34.56 
z
" style="fill: #ffffff"/>
   </g>
   <g id="PolyCollection_1">
    <defs>
     <path id="ma8b945749b" d="M 69.218182 -199.006309 
L 69.218182 -199.006309 
L 71.040719 -202.719772 
L 72.863255 -205.103392 
L 74.685792 -207.774966 
L 76.508329 -209.484042 
L 78.330866 -210.622654 
L 80.153402 -212.728092 
L 81.975939 -212.785212 
L 83.798476 -212.053 
L 85.621013 -209.22994 
L 87.443549 -208.385704 
L 89.266086 -208.056154 
L 91.088623 -208.183175 
L 92.911159 -207.685456 
L 94.733696 -207.545858 
L 96.556233 -209.192328 
L 98.37877 -209.833567 
L 100.201306 -210.724843 
L 102.023843 -212.268311 
L 103.84638 -213.999841 
L 105.668917 -213.527157 
L 107.491453 -213.741147 
L 109.31399 -214.067771 
L 111.136527 -213.36037 
L 112.959064 -209.760069 
L 114.7816 -206.245173 
L 116.604137 -204.50261 
L 118.426674 -204.109499 
L 120.249211 -202.722251 
L 122.071747 -200.279338 
L 123.894284 -199.863225 
L 125.716821 -199.136642 
L 127.539358 -197.930466 
L 129.361894 -197.676547 
L 131.184431 -199.666039 
L 133.006968 -201.488176 
L 134.829505 -200.855268 
L 136.652041 -202.326621 
L 138.474578 -204.258668 
L 140.297115 -206.627596 
L 142.119652 -210.050849 
L 143.942188 -213.157779 
L 145.764725 -215.951355 
L 147.587262 -218.761045 
L 149.409799 -221.214199 
L 151.232335 -221.189592 
L 153.054872 -221.82701 
L 154.877409 -220.79963 
L 156.699946 -221.434549 
L 158.522482 -221.827274 
L 160.345019 -222.192202 
L 162.167556 -222.181188 
L 163.990093 -221.135947 
L 165.812629 -218.331622 
L 167.635166 -214.792626 
L 169.457703 -212.841722 
L 171.28024 -213.333812 
L 173.102776 -213.993298 
L 174.925313 -213.007086 
L 176.74785 -210.605199 
L 178.570386 -208.021631 
L 180.392923 -207.628357 
L 182.21546 -209.349645 
L 184.037997 -213.830982 
L 185.860533 -218.340603 
L 187.68307 -223.830706 
L 189.505607 -227.30104 
L 191.328144 -229.506209 
L 193.15068 -231.276713 
L 194.973217 -234.306305 
L 196.795754 -236.762935 
L 198.618291 -239.06757 
L 200.440827 -239.628606 
L 202.263364 -239.169739 
L 204.085901 -239.260082 
L 205.908438 -238.650583 
L 207.730974 -239.496038 
L 209.553511 -240.777703 
L 211.376048 -242.029538 
L 213.198585 -243.125274 
L 215.021121 -243.556364 
L 216.843658 -242.516548 
L 218.666195 -242.468796 
L 220.488732 -240.178303 
L 222.311268 -235.055078 
L 224.133805 -229.696222 
L 225.956342 -223.290417 
L 227.778879 -214.758082 
L 229.601415 -204.08987 
L 231.423952 -192.820571 
L 233.246489 -179.649521 
L 235.069026 -166.331639 
L 236.891562 -152.706092 
L 238.714099 -139.795972 
L 240.536636 -128.721155 
L 242.359173 -117.456164 
L 244.181709 -105.532053 
L 246.004246 -95.643885 
L 247.826783 -87.642349 
L 249.64932 -79.832574 
L 251.471856 -73.704504 
L 253.294393 -68.233948 
L 255.11693 -62.989657 
L 256.939467 -59.052938 
L 258.762003 -55.881755 
L 260.58454 -53.585735 
L 262.407077 -51.968343 
L 264.229614 -50.296859 
L 266.05215 -49.005359 
L 267.874687 -48.298914 
L 269.697224 -47.924395 
L 271.51976 -47.680962 
L 273.342297 -47.650664 
L 275.164834 -47.558391 
L 276.987371 -47.548089 
L 278.809907 -47.525005 
L 280.632444 -47.470385 
L 282.454981 -47.438584 
L 284.277518 -47.479671 
L 286.100054 -47.465366 
L 287.922591 -47.453702 
L 289.745128 -47.441754 
L 291.567665 -47.457218 
L 293.390201 -47.506839 
L 295.212738 -47.640728 
L 297.035275 -47.730542 
L 298.857812 -47.789836 
L 300.680348 -47.85167 
L 302.502885 -47.882353 
L 304.325422 -47.888774 
L 306.147959 -47.902836 
L 307.970495 -47.888693 
L 309.793032 -47.904096 
L 311.615569 -47.824096 
L 313.438106 -47.931264 
L 315.260642 -48.112335 
L 317.083179 -48.165147 
L 318.905716 -48.242465 
L 320.728253 -48.235901 
L 322.550789 -48.332625 
L 324.373326 -48.506239 
L 326.195863 -48.577542 
L 328.0184 -48.714214 
L 329.840936 -48.793198 
L 331.663473 -48.71651 
L 333.48601 -48.658517 
L 335.308547 -48.76414 
L 337.131083 -48.755606 
L 338.95362 -48.89301 
L 340.776157 -48.940155 
L 342.598694 -48.99593 
L 344.42123 -49.171782 
L 346.243767 -49.200378 
L 348.066304 -49.296629 
L 349.888841 -49.473788 
L 351.711377 -49.510348 
L 353.533914 -49.494535 
L 355.356451 -49.605555 
L 357.178987 -49.742148 
L 359.001524 -49.88933 
L 360.824061 -49.974686 
L 362.646598 -49.995846 
L 364.469134 -50.06986 
L 366.291671 -50.175179 
L 368.114208 -50.207209 
L 369.936745 -50.303095 
L 371.759281 -50.465551 
L 373.581818 -50.52143 
L 373.581818 -50.52143 
L 373.581818 -50.52143 
L 371.759281 -50.465551 
L 369.936745 -50.303095 
L 368.114208 -50.207209 
L 366.291671 -50.175179 
L 364.469134 -50.06986 
L 362.646598 -49.995846 
L 360.824061 -49.974686 
L 359.001524 -49.88933 
L 357.178987 -49.742148 
L 355.356451 -49.605555 
L 353.533914 -49.494535 
L 351.711377 -49.510348 
L 349.888841 -49.473788 
L 348.066304 -49.296629 
L 346.243767 -49.200378 
L 344.42123 -49.171782 
L 342.598694 -48.99593 
L 340.776157 -48.940155 
L 338.95362 -48.89301 
L 337.131083 -48.755606 
L 335.308547 -48.76414 
L 333.48601 -48.658517 
L 331.663473 -48.71651 
L 329.840936 -48.793198 
L 328.0184 -48.714214 
L 326.195863 -48.577542 
L 324.373326 -48.506239 
L 322.550789 -48.332625 
L 320.728253 -48.235901 
L 318.905716 -48.242465 
L 317.083179 -48.165147 
L 315.260642 -48.112335 
L 313.438106 -47.931264 
L 311.615569 -47.824096 
L 309.793032 -47.904096 
L 307.970495 -47.888693 
L 306.147959 -47.902836 
L 304.325422 -47.888774 
L 302.502885 -47.882353 
L 300.680348 -47.85167 
L 298.857812 -47.789836 
L 297.035275 -47.730542 
L 295.212738 -47.640728 
L 293.390201 -47.506839 
L 291.567665 -47.457218 
L 289.745128 -47.441754 
L 287.922591 -47.453702 
L 286.100054 -47.465366 
L 284.277518 -47.479671 
L 282.454981 -47.438584 
L 280.632444 -47.470385 
L 278.809907 -47.525005 
L 276.987371 -47.548089 
L 275.164834 -47.558391 
L 273.342297 -47.650664 
L 271.51976 -47.680962 
L 269.697224 -47.924395 
L 267.874687 -48.298914 
L 266.05215 -49.005359 
L 264.229614 -50.296859 
L 262.407077 -51.968343 
L 260.58454 -53.585735 
L 258.762003 -55.881755 
L 256.939467 -59.052938 
L 255.11693 -62.989657 
L 253.294393 -68.233948 
L 251.471856 -73.704504 
L 249.64932 -79.832574 
L 247.826783 -87.642349 
L 246.004246 -95.643885 
L 244.181709 -105.532053 
L 242.359173 -117.456164 
L 240.536636 -128.721155 
L 238.714099 -139.795972 
L 236.891562 -152.706092 
L 235.069026 -166.331639 
L 233.246489 -179.649521 
L 231.423952 -192.820571 
L 229.601415 -204.08987 
L 227.778879 -214.758082 
L 225.956342 -223.290417 
L 224.133805 -229.696222 
L 222.311268 -235.055078 
L 220.488732 -240.178303 
L 218.666195 -242.468796 
L 216.843658 -242.516548 
L 215.021121 -243.556364 
L 213.198585 -243.125274 
L 211.376048 -242.029538 
L 209.553511 -240.777703 
L 207.730974 -239.496038 
L 205.908438 -238.650583 
L 204.085901 -239.260082 
L 202.263364 -239.169739 
L 200.440827 -239.628606 
L 198.618291 -239.06757 
L 196.795754 -236.762935 
L 194.973217 -234.306305 
L 193.15068 -231.276713 
L 191.328144 -229.506209 
L 189.505607 -227.30104 
L 187.68307 -223.830706 
L 185.860533 -218.340603 
L 184.037997 -213.830982 
L 182.21546 -209.349645 
L 180.392923 -207.628357 
L 178.570386 -208.021631 
L 176.74785 -210.605199 
L 174.925313 -213.007086 
L 173.102776 -213.993298 
L 171.28024 -213.333812 
L 169.457703 -212.841722 
L 167.635166 -214.792626 
L 165.812629 -218.331622 
L 163.990093 -221.135947 
L 162.167556 -222.181188 
L 160.345019 -222.192202 
L 158.522482 -221.827274 
L 156.699946 -221.434549 
L 154.877409 -220.79963 
L 153.054872 -221.82701 
L 151.232335 -221.189592 
L 149.409799 -221.214199 
L 147.587262 -218.761045 
L 145.764725 -215.951355 
L 143.942188 -213.157779 
L 142.119652 -210.050849 
L 140.297115 -206.627596 
L 138.474578 -204.258668 
L 136.652041 -202.326621 
L 134.829505 -200.855268 
L 133.006968 -201.488176 
L 131.184431 -199.666039 
L 129.361894 -197.676547 
L 127.539358 -197.930466 
L 125.716821 -199.136642 
L 123.894284 -199.863225 
L 122.071747 -200.279338 
L 120.249211 -202.722251 
L 118.426674 -204.109499 
L 116.604137 -204.50261 
L 114.7816 -206.245173 
L 112.959064 -209.760069 
L 111.136527 -213.36037 
L 109.31399 -214.067771 
L 107.491453 -213.741147 
L 105.668917 -213.527157 
L 103.84638 -213.999841 
L 102.023843 -212.268311 
L 100.201306 -210.724843 
L 98.37877 -209.833567 
L 96.556233 -209.192328 
L 94.733696 -207.545858 
L 92.911159 -207.685456 
L 91.088623 -208.183175 
L 89.266086 -208.056154 
L 87.443549 -208.385704 
L 85.621013 -209.22994 
L 83.798476 -212.053 
L 81.975939 -212.785212 
L 80.153402 -212.728092 
L 78.330866 -210.622654 
L 76.508329 -209.484042 
L 74.685792 -207.774966 
L 72.863255 -205.103392 
L 71.040719 -202.719772 
L 69.218182 -199.006309 
z
" style="stroke: #4e4f91; stroke-opacity: 0.1"/>
    </defs>
    <g clip-path="url(#pc22829fb73)">
     <use xlink:href="#ma8b945749b" x="0" y="288" style="fill: #4e4f91; fill-opacity: 0.1; stroke: #4e4f91; stroke-opacity: 0.1"/>
    </g>
   </g>
   <g id="PolyCollection_2">
    <defs>
     <path id="mbf9a51dea7" d="M 69.218182 -46.759911 
L 69.218182 -46.759911 
L 71.040719 -46.52851 
L 72.863255 -45.890301 
L 74.685792 -45.927827 
L 76.508329 -45.958162 
L 78.330866 -45.962522 
L 80.153402 -45.921311 
L 81.975939 -45.889807 
L 83.798476 -47.34046 
L 85.621013 -47.377402 
L 87.443549 -47.375874 
L 89.266086 -46.397102 
L 91.088623 -46.764226 
L 92.911159 -46.798291 
L 94.733696 -47.304013 
L 96.556233 -47.195301 
L 98.37877 -47.22968 
L 100.201306 -46.291356 
L 102.023843 -46.095727 
L 103.84638 -46.699106 
L 105.668917 -46.724633 
L 107.491453 -46.729936 
L 109.31399 -46.340252 
L 111.136527 -46.466806 
L 112.959064 -46.437414 
L 114.7816 -46.293468 
L 116.604137 -46.216978 
L 118.426674 -46.529903 
L 120.249211 -47.060657 
L 122.071747 -47.643228 
L 123.894284 -47.63433 
L 125.716821 -48.912319 
L 127.539358 -49.082376 
L 129.361894 -49.168169 
L 131.184431 -47.968422 
L 133.006968 -47.199255 
L 134.829505 -46.763552 
L 136.652041 -46.730205 
L 138.474578 -47.139978 
L 140.297115 -47.239478 
L 142.119652 -46.980347 
L 143.942188 -46.96718 
L 145.764725 -46.883724 
L 147.587262 -46.714835 
L 149.409799 -47.178043 
L 151.232335 -48.257887 
L 153.054872 -48.469875 
L 154.877409 -47.985544 
L 156.699946 -47.676709 
L 158.522482 -47.538156 
L 160.345019 -47.412591 
L 162.167556 -47.693068 
L 163.990093 -47.663766 
L 165.812629 -47.932334 
L 167.635166 -47.625881 
L 169.457703 -47.945187 
L 171.28024 -47.552762 
L 173.102776 -46.807998 
L 174.925313 -46.16251 
L 176.74785 -46.050382 
L 178.570386 -46.171318 
L 180.392923 -46.859321 
L 182.21546 -47.895033 
L 184.037997 -48.376082 
L 185.860533 -48.195689 
L 187.68307 -47.293407 
L 189.505607 -47.056747 
L 191.328144 -46.861343 
L 193.15068 -46.87177 
L 194.973217 -47.006458 
L 196.795754 -46.918598 
L 198.618291 -47.074813 
L 200.440827 -47.189009 
L 202.263364 -47.452903 
L 204.085901 -47.714954 
L 205.908438 -47.770097 
L 207.730974 -48.075067 
L 209.553511 -48.470279 
L 211.376048 -48.703074 
L 213.198585 -48.805809 
L 215.021121 -48.937217 
L 216.843658 -49.54082 
L 218.666195 -52.034197 
L 220.488732 -55.79981 
L 222.311268 -60.261695 
L 224.133805 -65.004956 
L 225.956342 -69.716759 
L 227.778879 -74.275358 
L 229.601415 -79.295546 
L 231.423952 -88.865839 
L 233.246489 -102.107054 
L 235.069026 -119.415797 
L 236.891562 -136.851678 
L 238.714099 -152.751382 
L 240.536636 -170.786283 
L 242.359173 -189.038249 
L 244.181709 -205.418014 
L 246.004246 -215.117198 
L 247.826783 -220.055279 
L 249.64932 -227.51806 
L 251.471856 -234.143185 
L 253.294393 -240.17648 
L 255.11693 -243.556364 
L 256.939467 -241.97673 
L 258.762003 -234.526307 
L 260.58454 -225.888137 
L 262.407077 -218.536496 
L 264.229614 -214.37212 
L 266.05215 -209.201155 
L 267.874687 -204.652803 
L 269.697224 -202.256814 
L 271.51976 -202.486328 
L 273.342297 -206.184305 
L 275.164834 -209.688271 
L 276.987371 -210.21889 
L 278.809907 -209.011413 
L 280.632444 -208.448841 
L 282.454981 -209.44905 
L 284.277518 -210.705288 
L 286.100054 -210.4138 
L 287.922591 -210.456808 
L 289.745128 -212.594566 
L 291.567665 -215.511961 
L 293.390201 -216.999151 
L 295.212738 -217.642123 
L 297.035275 -215.800483 
L 298.857812 -215.189958 
L 300.680348 -212.432014 
L 302.502885 -213.367103 
L 304.325422 -214.674079 
L 306.147959 -215.995527 
L 307.970495 -217.084135 
L 309.793032 -216.714899 
L 311.615569 -217.203363 
L 313.438106 -217.705131 
L 315.260642 -217.257742 
L 317.083179 -215.33314 
L 318.905716 -211.666263 
L 320.728253 -209.226456 
L 322.550789 -209.879001 
L 324.373326 -210.381892 
L 326.195863 -215.248651 
L 328.0184 -219.476079 
L 329.840936 -221.844069 
L 331.663473 -220.150555 
L 333.48601 -216.081814 
L 335.308547 -213.974661 
L 337.131083 -213.615268 
L 338.95362 -214.152224 
L 340.776157 -216.474194 
L 342.598694 -218.013921 
L 344.42123 -219.980677 
L 346.243767 -220.267581 
L 348.066304 -222.711657 
L 349.888841 -224.623001 
L 351.711377 -228.228489 
L 353.533914 -228.291801 
L 355.356451 -229.54009 
L 357.178987 -230.021589 
L 359.001524 -230.699969 
L 360.824061 -230.247101 
L 362.646598 -228.023837 
L 364.469134 -227.163512 
L 366.291671 -223.771354 
L 368.114208 -225.520277 
L 369.936745 -228.486404 
L 371.759281 -235.38042 
L 373.581818 -235.67762 
L 373.581818 -235.67762 
L 373.581818 -235.67762 
L 371.759281 -235.38042 
L 369.936745 -228.486404 
L 368.114208 -225.520277 
L 366.291671 -223.771354 
L 364.469134 -227.163512 
L 362.646598 -228.023837 
L 360.824061 -230.247101 
L 359.001524 -230.699969 
L 357.178987 -230.021589 
L 355.356451 -229.54009 
L 353.533914 -228.291801 
L 351.711377 -228.228489 
L 349.888841 -224.623001 
L 348.066304 -222.711657 
L 346.243767 -220.267581 
L 344.42123 -219.980677 
L 342.598694 -218.013921 
L 340.776157 -216.474194 
L 338.95362 -214.152224 
L 337.131083 -213.615268 
L 335.308547 -213.974661 
L 333.48601 -216.081814 
L 331.663473 -220.150555 
L 329.840936 -221.844069 
L 328.0184 -219.476079 
L 326.195863 -215.248651 
L 324.373326 -210.381892 
L 322.550789 -209.879001 
L 320.728253 -209.226456 
L 318.905716 -211.666263 
L 317.083179 -215.33314 
L 315.260642 -217.257742 
L 313.438106 -217.705131 
L 311.615569 -217.203363 
L 309.793032 -216.714899 
L 307.970495 -217.084135 
L 306.147959 -215.995527 
L 304.325422 -214.674079 
L 302.502885 -213.367103 
L 300.680348 -212.432014 
L 298.857812 -215.189958 
L 297.035275 -215.800483 
L 295.212738 -217.642123 
L 293.390201 -216.999151 
L 291.567665 -215.511961 
L 289.745128 -212.594566 
L 287.922591 -210.456808 
L 286.100054 -210.4138 
L 284.277518 -210.705288 
L 282.454981 -209.44905 
L 280.632444 -208.448841 
L 278.809907 -209.011413 
L 276.987371 -210.21889 
L 275.164834 -209.688271 
L 273.342297 -206.184305 
L 271.51976 -202.486328 
L 269.697224 -202.256814 
L 267.874687 -204.652803 
L 266.05215 -209.201155 
L 264.229614 -214.37212 
L 262.407077 -218.536496 
L 260.58454 -225.888137 
L 258.762003 -234.526307 
L 256.939467 -241.97673 
L 255.11693 -243.556364 
L 253.294393 -240.17648 
L 251.471856 -234.143185 
L 249.64932 -227.51806 
L 247.826783 -220.055279 
L 246.004246 -215.117198 
L 244.181709 -205.418014 
L 242.359173 -189.038249 
L 240.536636 -170.786283 
L 238.714099 -152.751382 
L 236.891562 -136.851678 
L 235.069026 -119.415797 
L 233.246489 -102.107054 
L 231.423952 -88.865839 
L 229.601415 -79.295546 
L 227.778879 -74.275358 
L 225.956342 -69.716759 
L 224.133805 -65.004956 
L 222.311268 -60.261695 
L 220.488732 -55.79981 
L 218.666195 -52.034197 
L 216.843658 -49.54082 
L 215.021121 -48.937217 
L 213.198585 -48.805809 
L 211.376048 -48.703074 
L 209.553511 -48.470279 
L 207.730974 -48.075067 
L 205.908438 -47.770097 
L 204.085901 -47.714954 
L 202.263364 -47.452903 
L 200.440827 -47.189009 
L 198.618291 -47.074813 
L 196.795754 -46.918598 
L 194.973217 -47.006458 
L 193.15068 -46.87177 
L 191.328144 -46.861343 
L 189.505607 -47.056747 
L 187.68307 -47.293407 
L 185.860533 -48.195689 
L 184.037997 -48.376082 
L 182.21546 -47.895033 
L 180.392923 -46.859321 
L 178.570386 -46.171318 
L 176.74785 -46.050382 
L 174.925313 -46.16251 
L 173.102776 -46.807998 
L 171.28024 -47.552762 
L 169.457703 -47.945187 
L 167.635166 -47.625881 
L 165.812629 -47.932334 
L 163.990093 -47.663766 
L 162.167556 -47.693068 
L 160.345019 -47.412591 
L 158.522482 -47.538156 
L 156.699946 -47.676709 
L 154.877409 -47.985544 
L 153.054872 -48.469875 
L 151.232335 -48.257887 
L 149.409799 -47.178043 
L 147.587262 -46.714835 
L 145.764725 -46.883724 
L 143.942188 -46.96718 
L 142.119652 -46.980347 
L 140.297115 -47.239478 
L 138.474578 -47.139978 
L 136.652041 -46.730205 
L 134.829505 -46.763552 
L 133.006968 -47.199255 
L 131.184431 -47.968422 
L 129.361894 -49.168169 
L 127.539358 -49.082376 
L 125.716821 -48.912319 
L 123.894284 -47.63433 
L 122.071747 -47.643228 
L 120.249211 -47.060657 
L 118.426674 -46.529903 
L 116.604137 -46.216978 
L 114.7816 -46.293468 
L 112.959064 -46.437414 
L 111.136527 -46.466806 
L 109.31399 -46.340252 
L 107.491453 -46.729936 
L 105.668917 -46.724633 
L 103.84638 -46.699106 
L 102.023843 -46.095727 
L 100.201306 -46.291356 
L 98.37877 -47.22968 
L 96.556233 -47.195301 
L 94.733696 -47.304013 
L 92.911159 -46.798291 
L 91.088623 -46.764226 
L 89.266086 -46.397102 
L 87.443549 -47.375874 
L 85.621013 -47.377402 
L 83.798476 -47.34046 
L 81.975939 -45.889807 
L 80.153402 -45.921311 
L 78.330866 -45.962522 
L 76.508329 -45.958162 
L 74.685792 -45.927827 
L 72.863255 -45.890301 
L 71.040719 -46.52851 
L 69.218182 -46.759911 
z
" style="stroke: #a00000; stroke-opacity: 0.1"/>
    </defs>
    <g clip-path="url(#pc22829fb73)">
     <use xlink:href="#mbf9a51dea7" x="0" y="288" style="fill: #a00000; fill-opacity: 0.1; stroke: #a00000; stroke-opacity: 0.1"/>
    </g>
   </g>
   <g id="matplotlib.axis_1">
    <g id="xtick_1">
     <g id="line2d_1">
      <defs>
       <path id="mbbd89cddd4" d="M 0 0 
L 0 3.5 
" style="stroke: #000000; stroke-width: 0.8"/>
      </defs>
      <g>
       <use xlink:href="#mbbd89cddd4" x="63.690014" y="252" style="stroke: #000000; stroke-width: 0.8"/>
      </g>
     </g>
     <g id="text_1">
      <!-- −800 -->
      <g transform="translate(47.209701 268.118125) scale(0.12 -0.12)">
       <defs>
        <path id="DejaVuSans-2212" d="M 678 2272 
L 4684 2272 
L 4684 1741 
L 678 1741 
L 678 2272 
z
" transform="scale(0.015625)"/>
        <path id="DejaVuSans-38" d="M 2034 2216 
Q 1584 2216 1326 1975 
Q 1069 1734 1069 1313 
Q 1069 891 1326 650 
Q 1584 409 2034 409 
Q 2484 409 2743 651 
Q 3003 894 3003 1313 
Q 3003 1734 2745 1975 
Q 2488 2216 2034 2216 
z
M 1403 2484 
Q 997 2584 770 2862 
Q 544 3141 544 3541 
Q 544 4100 942 4425 
Q 1341 4750 2034 4750 
Q 2731 4750 3128 4425 
Q 3525 4100 3525 3541 
Q 3525 3141 3298 2862 
Q 3072 2584 2669 2484 
Q 3125 2378 3379 2068 
Q 3634 1759 3634 1313 
Q 3634 634 3220 271 
Q 2806 -91 2034 -91 
Q 1263 -91 848 271 
Q 434 634 434 1313 
Q 434 1759 690 2068 
Q 947 2378 1403 2484 
z
M 1172 3481 
Q 1172 3119 1398 2916 
Q 1625 2713 2034 2713 
Q 2441 2713 2670 2916 
Q 2900 3119 2900 3481 
Q 2900 3844 2670 4047 
Q 2441 4250 2034 4250 
Q 1625 4250 1398 4047 
Q 1172 3844 1172 3481 
z
" transform="scale(0.015625)"/>
        <path id="DejaVuSans-30" d="M 2034 4250 
Q 1547 4250 1301 3770 
Q 1056 3291 1056 2328 
Q 1056 1369 1301 889 
Q 1547 409 2034 409 
Q 2525 409 2770 889 
Q 3016 1369 3016 2328 
Q 3016 3291 2770 3770 
Q 2525 4250 2034 4250 
z
M 2034 4750 
Q 2819 4750 3233 4129 
Q 3647 3509 3647 2328 
Q 3647 1150 3233 529 
Q 2819 -91 2034 -91 
Q 1250 -91 836 529 
Q 422 1150 422 2328 
Q 422 3509 836 4129 
Q 1250 4750 2034 4750 
z
" transform="scale(0.015625)"/>
       </defs>
       <use xlink:href="#DejaVuSans-2212"/>
       <use xlink:href="#DejaVuSans-38" x="83.789062"/>
       <use xlink:href="#DejaVuSans-30" x="147.412109"/>
       <use xlink:href="#DejaVuSans-30" x="211.035156"/>
      </g>
     </g>
    </g>
    <g id="xtick_2">
     <g id="line2d_2">
      <g>
       <use xlink:href="#mbbd89cddd4" x="105.167864" y="252" style="stroke: #000000; stroke-width: 0.8"/>
      </g>
     </g>
     <g id="text_2">
      <!-- −600 -->
      <g transform="translate(88.687552 268.118125) scale(0.12 -0.12)">
       <defs>
        <path id="DejaVuSans-36" d="M 2113 2584 
Q 1688 2584 1439 2293 
Q 1191 2003 1191 1497 
Q 1191 994 1439 701 
Q 1688 409 2113 409 
Q 2538 409 2786 701 
Q 3034 994 3034 1497 
Q 3034 2003 2786 2293 
Q 2538 2584 2113 2584 
z
M 3366 4563 
L 3366 3988 
Q 3128 4100 2886 4159 
Q 2644 4219 2406 4219 
Q 1781 4219 1451 3797 
Q 1122 3375 1075 2522 
Q 1259 2794 1537 2939 
Q 1816 3084 2150 3084 
Q 2853 3084 3261 2657 
Q 3669 2231 3669 1497 
Q 3669 778 3244 343 
Q 2819 -91 2113 -91 
Q 1303 -91 875 529 
Q 447 1150 447 2328 
Q 447 3434 972 4092 
Q 1497 4750 2381 4750 
Q 2619 4750 2861 4703 
Q 3103 4656 3366 4563 
z
" transform="scale(0.015625)"/>
       </defs>
       <use xlink:href="#DejaVuSans-2212"/>
       <use xlink:href="#DejaVuSans-36" x="83.789062"/>
       <use xlink:href="#DejaVuSans-30" x="147.412109"/>
       <use xlink:href="#DejaVuSans-30" x="211.035156"/>
      </g>
     </g>
    </g>
    <g id="xtick_3">
     <g id="line2d_3">
      <g>
       <use xlink:href="#mbbd89cddd4" x="146.645715" y="252" style="stroke: #000000; stroke-width: 0.8"/>
      </g>
     </g>
     <g id="text_3">
      <!-- −400 -->
      <g transform="translate(130.165402 268.118125) scale(0.12 -0.12)">
       <defs>
        <path id="DejaVuSans-34" d="M 2419 4116 
L 825 1625 
L 2419 1625 
L 2419 4116 
z
M 2253 4666 
L 3047 4666 
L 3047 1625 
L 3713 1625 
L 3713 1100 
L 3047 1100 
L 3047 0 
L 2419 0 
L 2419 1100 
L 313 1100 
L 313 1709 
L 2253 4666 
z
" transform="scale(0.015625)"/>
       </defs>
       <use xlink:href="#DejaVuSans-2212"/>
       <use xlink:href="#DejaVuSans-34" x="83.789062"/>
       <use xlink:href="#DejaVuSans-30" x="147.412109"/>
       <use xlink:href="#DejaVuSans-30" x="211.035156"/>
      </g>
     </g>
    </g>
    <g id="xtick_4">
     <g id="line2d_4">
      <g>
       <use xlink:href="#mbbd89cddd4" x="188.123565" y="252" style="stroke: #000000; stroke-width: 0.8"/>
      </g>
     </g>
     <g id="text_4">
      <!-- −200 -->
      <g transform="translate(171.643252 268.118125) scale(0.12 -0.12)">
       <defs>
        <path id="DejaVuSans-32" d="M 1228 531 
L 3431 531 
L 3431 0 
L 469 0 
L 469 531 
Q 828 903 1448 1529 
Q 2069 2156 2228 2338 
Q 2531 2678 2651 2914 
Q 2772 3150 2772 3378 
Q 2772 3750 2511 3984 
Q 2250 4219 1831 4219 
Q 1534 4219 1204 4116 
Q 875 4013 500 3803 
L 500 4441 
Q 881 4594 1212 4672 
Q 1544 4750 1819 4750 
Q 2544 4750 2975 4387 
Q 3406 4025 3406 3419 
Q 3406 3131 3298 2873 
Q 3191 2616 2906 2266 
Q 2828 2175 2409 1742 
Q 1991 1309 1228 531 
z
" transform="scale(0.015625)"/>
       </defs>
       <use xlink:href="#DejaVuSans-2212"/>
       <use xlink:href="#DejaVuSans-32" x="83.789062"/>
       <use xlink:href="#DejaVuSans-30" x="147.412109"/>
       <use xlink:href="#DejaVuSans-30" x="211.035156"/>
      </g>
     </g>
    </g>
    <g id="xtick_5">
     <g id="line2d_5">
      <g>
       <use xlink:href="#mbbd89cddd4" x="229.601415" y="252" style="stroke: #000000; stroke-width: 0.8"/>
      </g>
     </g>
     <g id="text_5">
      <!-- 0 -->
      <g transform="translate(225.783915 268.118125) scale(0.12 -0.12)">
       <use xlink:href="#DejaVuSans-30"/>
      </g>
     </g>
    </g>
    <g id="xtick_6">
     <g id="line2d_6">
      <g>
       <use xlink:href="#mbbd89cddd4" x="271.079266" y="252" style="stroke: #000000; stroke-width: 0.8"/>
      </g>
     </g>
     <g id="text_6">
      <!-- 200 -->
      <g transform="translate(259.626766 268.118125) scale(0.12 -0.12)">
       <use xlink:href="#DejaVuSans-32"/>
       <use xlink:href="#DejaVuSans-30" x="63.623047"/>
       <use xlink:href="#DejaVuSans-30" x="127.246094"/>
      </g>
     </g>
    </g>
    <g id="xtick_7">
     <g id="line2d_7">
      <g>
       <use xlink:href="#mbbd89cddd4" x="312.557116" y="252" style="stroke: #000000; stroke-width: 0.8"/>
      </g>
     </g>
     <g id="text_7">
      <!-- 400 -->
      <g transform="translate(301.104616 268.118125) scale(0.12 -0.12)">
       <use xlink:href="#DejaVuSans-34"/>
       <use xlink:href="#DejaVuSans-30" x="63.623047"/>
       <use xlink:href="#DejaVuSans-30" x="127.246094"/>
      </g>
     </g>
    </g>
    <g id="xtick_8">
     <g id="line2d_8">
      <g>
       <use xlink:href="#mbbd89cddd4" x="354.034966" y="252" style="stroke: #000000; stroke-width: 0.8"/>
      </g>
     </g>
     <g id="text_8">
      <!-- 600 -->
      <g transform="translate(342.582466 268.118125) scale(0.12 -0.12)">
       <use xlink:href="#DejaVuSans-36"/>
       <use xlink:href="#DejaVuSans-30" x="63.623047"/>
       <use xlink:href="#DejaVuSans-30" x="127.246094"/>
      </g>
     </g>
    </g>
    <g id="text_9">
     <!-- Distance from interface (um) -->
     <g transform="translate(119.895625 285.251562) scale(0.14 -0.14)">
      <defs>
       <path id="DejaVuSans-44" d="M 1259 4147 
L 1259 519 
L 2022 519 
Q 2988 519 3436 956 
Q 3884 1394 3884 2338 
Q 3884 3275 3436 3711 
Q 2988 4147 2022 4147 
L 1259 4147 
z
M 628 4666 
L 1925 4666 
Q 3281 4666 3915 4102 
Q 4550 3538 4550 2338 
Q 4550 1131 3912 565 
Q 3275 0 1925 0 
L 628 0 
L 628 4666 
z
" transform="scale(0.015625)"/>
       <path id="DejaVuSans-69" d="M 603 3500 
L 1178 3500 
L 1178 0 
L 603 0 
L 603 3500 
z
M 603 4863 
L 1178 4863 
L 1178 4134 
L 603 4134 
L 603 4863 
z
" transform="scale(0.015625)"/>
       <path id="DejaVuSans-73" d="M 2834 3397 
L 2834 2853 
Q 2591 2978 2328 3040 
Q 2066 3103 1784 3103 
Q 1356 3103 1142 2972 
Q 928 2841 928 2578 
Q 928 2378 1081 2264 
Q 1234 2150 1697 2047 
L 1894 2003 
Q 2506 1872 2764 1633 
Q 3022 1394 3022 966 
Q 3022 478 2636 193 
Q 2250 -91 1575 -91 
Q 1294 -91 989 -36 
Q 684 19 347 128 
L 347 722 
Q 666 556 975 473 
Q 1284 391 1588 391 
Q 1994 391 2212 530 
Q 2431 669 2431 922 
Q 2431 1156 2273 1281 
Q 2116 1406 1581 1522 
L 1381 1569 
Q 847 1681 609 1914 
Q 372 2147 372 2553 
Q 372 3047 722 3315 
Q 1072 3584 1716 3584 
Q 2034 3584 2315 3537 
Q 2597 3491 2834 3397 
z
" transform="scale(0.015625)"/>
       <path id="DejaVuSans-74" d="M 1172 4494 
L 1172 3500 
L 2356 3500 
L 2356 3053 
L 1172 3053 
L 1172 1153 
Q 1172 725 1289 603 
Q 1406 481 1766 481 
L 2356 481 
L 2356 0 
L 1766 0 
Q 1100 0 847 248 
Q 594 497 594 1153 
L 594 3053 
L 172 3053 
L 172 3500 
L 594 3500 
L 594 4494 
L 1172 4494 
z
" transform="scale(0.015625)"/>
       <path id="DejaVuSans-61" d="M 2194 1759 
Q 1497 1759 1228 1600 
Q 959 1441 959 1056 
Q 959 750 1161 570 
Q 1363 391 1709 391 
Q 2188 391 2477 730 
Q 2766 1069 2766 1631 
L 2766 1759 
L 2194 1759 
z
M 3341 1997 
L 3341 0 
L 2766 0 
L 2766 531 
Q 2569 213 2275 61 
Q 1981 -91 1556 -91 
Q 1019 -91 701 211 
Q 384 513 384 1019 
Q 384 1609 779 1909 
Q 1175 2209 1959 2209 
L 2766 2209 
L 2766 2266 
Q 2766 2663 2505 2880 
Q 2244 3097 1772 3097 
Q 1472 3097 1187 3025 
Q 903 2953 641 2809 
L 641 3341 
Q 956 3463 1253 3523 
Q 1550 3584 1831 3584 
Q 2591 3584 2966 3190 
Q 3341 2797 3341 1997 
z
" transform="scale(0.015625)"/>
       <path id="DejaVuSans-6e" d="M 3513 2113 
L 3513 0 
L 2938 0 
L 2938 2094 
Q 2938 2591 2744 2837 
Q 2550 3084 2163 3084 
Q 1697 3084 1428 2787 
Q 1159 2491 1159 1978 
L 1159 0 
L 581 0 
L 581 3500 
L 1159 3500 
L 1159 2956 
Q 1366 3272 1645 3428 
Q 1925 3584 2291 3584 
Q 2894 3584 3203 3211 
Q 3513 2838 3513 2113 
z
" transform="scale(0.015625)"/>
       <path id="DejaVuSans-63" d="M 3122 3366 
L 3122 2828 
Q 2878 2963 2633 3030 
Q 2388 3097 2138 3097 
Q 1578 3097 1268 2742 
Q 959 2388 959 1747 
Q 959 1106 1268 751 
Q 1578 397 2138 397 
Q 2388 397 2633 464 
Q 2878 531 3122 666 
L 3122 134 
Q 2881 22 2623 -34 
Q 2366 -91 2075 -91 
Q 1284 -91 818 406 
Q 353 903 353 1747 
Q 353 2603 823 3093 
Q 1294 3584 2113 3584 
Q 2378 3584 2631 3529 
Q 2884 3475 3122 3366 
z
" transform="scale(0.015625)"/>
       <path id="DejaVuSans-65" d="M 3597 1894 
L 3597 1613 
L 953 1613 
Q 991 1019 1311 708 
Q 1631 397 2203 397 
Q 2534 397 2845 478 
Q 3156 559 3463 722 
L 3463 178 
Q 3153 47 2828 -22 
Q 2503 -91 2169 -91 
Q 1331 -91 842 396 
Q 353 884 353 1716 
Q 353 2575 817 3079 
Q 1281 3584 2069 3584 
Q 2775 3584 3186 3129 
Q 3597 2675 3597 1894 
z
M 3022 2063 
Q 3016 2534 2758 2815 
Q 2500 3097 2075 3097 
Q 1594 3097 1305 2825 
Q 1016 2553 972 2059 
L 3022 2063 
z
" transform="scale(0.015625)"/>
       <path id="DejaVuSans-20" transform="scale(0.015625)"/>
       <path id="DejaVuSans-66" d="M 2375 4863 
L 2375 4384 
L 1825 4384 
Q 1516 4384 1395 4259 
Q 1275 4134 1275 3809 
L 1275 3500 
L 2222 3500 
L 2222 3053 
L 1275 3053 
L 1275 0 
L 697 0 
L 697 3053 
L 147 3053 
L 147 3500 
L 697 3500 
L 697 3744 
Q 697 4328 969 4595 
Q 1241 4863 1831 4863 
L 2375 4863 
z
" transform="scale(0.015625)"/>
       <path id="DejaVuSans-72" d="M 2631 2963 
Q 2534 3019 2420 3045 
Q 2306 3072 2169 3072 
Q 1681 3072 1420 2755 
Q 1159 2438 1159 1844 
L 1159 0 
L 581 0 
L 581 3500 
L 1159 3500 
L 1159 2956 
Q 1341 3275 1631 3429 
Q 1922 3584 2338 3584 
Q 2397 3584 2469 3576 
Q 2541 3569 2628 3553 
L 2631 2963 
z
" transform="scale(0.015625)"/>
       <path id="DejaVuSans-6f" d="M 1959 3097 
Q 1497 3097 1228 2736 
Q 959 2375 959 1747 
Q 959 1119 1226 758 
Q 1494 397 1959 397 
Q 2419 397 2687 759 
Q 2956 1122 2956 1747 
Q 2956 2369 2687 2733 
Q 2419 3097 1959 3097 
z
M 1959 3584 
Q 2709 3584 3137 3096 
Q 3566 2609 3566 1747 
Q 3566 888 3137 398 
Q 2709 -91 1959 -91 
Q 1206 -91 779 398 
Q 353 888 353 1747 
Q 353 2609 779 3096 
Q 1206 3584 1959 3584 
z
" transform="scale(0.015625)"/>
       <path id="DejaVuSans-6d" d="M 3328 2828 
Q 3544 3216 3844 3400 
Q 4144 3584 4550 3584 
Q 5097 3584 5394 3201 
Q 5691 2819 5691 2113 
L 5691 0 
L 5113 0 
L 5113 2094 
Q 5113 2597 4934 2840 
Q 4756 3084 4391 3084 
Q 3944 3084 3684 2787 
Q 3425 2491 3425 1978 
L 3425 0 
L 2847 0 
L 2847 2094 
Q 2847 2600 2669 2842 
Q 2491 3084 2119 3084 
Q 1678 3084 1418 2786 
Q 1159 2488 1159 1978 
L 1159 0 
L 581 0 
L 581 3500 
L 1159 3500 
L 1159 2956 
Q 1356 3278 1631 3431 
Q 1906 3584 2284 3584 
Q 2666 3584 2933 3390 
Q 3200 3197 3328 2828 
z
" transform="scale(0.015625)"/>
       <path id="DejaVuSans-28" d="M 1984 4856 
Q 1566 4138 1362 3434 
Q 1159 2731 1159 2009 
Q 1159 1288 1364 580 
Q 1569 -128 1984 -844 
L 1484 -844 
Q 1016 -109 783 600 
Q 550 1309 550 2009 
Q 550 2706 781 3412 
Q 1013 4119 1484 4856 
L 1984 4856 
z
" transform="scale(0.015625)"/>
       <path id="DejaVuSans-75" d="M 544 1381 
L 544 3500 
L 1119 3500 
L 1119 1403 
Q 1119 906 1312 657 
Q 1506 409 1894 409 
Q 2359 409 2629 706 
Q 2900 1003 2900 1516 
L 2900 3500 
L 3475 3500 
L 3475 0 
L 2900 0 
L 2900 538 
Q 2691 219 2414 64 
Q 2138 -91 1772 -91 
Q 1169 -91 856 284 
Q 544 659 544 1381 
z
M 1991 3584 
L 1991 3584 
z
" transform="scale(0.015625)"/>
       <path id="DejaVuSans-29" d="M 513 4856 
L 1013 4856 
Q 1481 4119 1714 3412 
Q 1947 2706 1947 2009 
Q 1947 1309 1714 600 
Q 1481 -109 1013 -844 
L 513 -844 
Q 928 -128 1133 580 
Q 1338 1288 1338 2009 
Q 1338 2731 1133 3434 
Q 928 4138 513 4856 
z
" transform="scale(0.015625)"/>
      </defs>
      <use xlink:href="#DejaVuSans-44"/>
      <use xlink:href="#DejaVuSans-69" x="77.001953"/>
      <use xlink:href="#DejaVuSans-73" x="104.785156"/>
      <use xlink:href="#DejaVuSans-74" x="156.884766"/>
      <use xlink:href="#DejaVuSans-61" x="196.09375"/>
      <use xlink:href="#DejaVuSans-6e" x="257.373047"/>
      <use xlink:href="#DejaVuSans-63" x="320.751953"/>
      <use xlink:href="#DejaVuSans-65" x="375.732422"/>
      <use xlink:href="#DejaVuSans-20" x="437.255859"/>
      <use xlink:href="#DejaVuSans-66" x="469.042969"/>
      <use xlink:href="#DejaVuSans-72" x="504.248047"/>
      <use xlink:href="#DejaVuSans-6f" x="543.111328"/>
      <use xlink:href="#DejaVuSans-6d" x="604.292969"/>
      <use xlink:href="#DejaVuSans-20" x="701.705078"/>
      <use xlink:href="#DejaVuSans-69" x="733.492188"/>
      <use xlink:href="#DejaVuSans-6e" x="761.275391"/>
      <use xlink:href="#DejaVuSans-74" x="824.654297"/>
      <use xlink:href="#DejaVuSans-65" x="863.863281"/>
      <use xlink:href="#DejaVuSans-72" x="925.386719"/>
      <use xlink:href="#DejaVuSans-66" x="966.5"/>
      <use xlink:href="#DejaVuSans-61" x="1001.705078"/>
      <use xlink:href="#DejaVuSans-63" x="1062.984375"/>
      <use xlink:href="#DejaVuSans-65" x="1117.964844"/>
      <use xlink:href="#DejaVuSans-20" x="1179.488281"/>
      <use xlink:href="#DejaVuSans-28" x="1211.275391"/>
      <use xlink:href="#DejaVuSans-75" x="1250.289062"/>
      <use xlink:href="#DejaVuSans-6d" x="1313.667969"/>
      <use xlink:href="#DejaVuSans-29" x="1411.080078"/>
     </g>
    </g>
   </g>
   <g id="matplotlib.axis_2">
    <g id="ytick_1">
     <g id="line2d_9">
      <defs>
       <path id="maade16f771" d="M 0 0 
L -3.5 0 
" style="stroke: #000000; stroke-width: 0.8"/>
      </defs>
      <g>
       <use xlink:href="#maade16f771" x="54" y="242.12372" style="stroke: #000000; stroke-width: 0.8"/>
      </g>
     </g>
     <g id="text_10">
      <!-- 0.0 -->
      <g transform="translate(27.91625 246.682783) scale(0.12 -0.12)">
       <defs>
        <path id="DejaVuSans-2e" d="M 684 794 
L 1344 794 
L 1344 0 
L 684 0 
L 684 794 
z
" transform="scale(0.015625)"/>
       </defs>
       <use xlink:href="#DejaVuSans-30"/>
       <use xlink:href="#DejaVuSans-2e" x="63.623047"/>
       <use xlink:href="#DejaVuSans-30" x="95.410156"/>
      </g>
     </g>
    </g>
    <g id="ytick_2">
     <g id="line2d_10">
      <g>
       <use xlink:href="#maade16f771" x="54" y="202.587703" style="stroke: #000000; stroke-width: 0.8"/>
      </g>
     </g>
     <g id="text_11">
      <!-- 0.2 -->
      <g transform="translate(27.91625 207.146766) scale(0.12 -0.12)">
       <use xlink:href="#DejaVuSans-30"/>
       <use xlink:href="#DejaVuSans-2e" x="63.623047"/>
       <use xlink:href="#DejaVuSans-32" x="95.410156"/>
      </g>
     </g>
    </g>
    <g id="ytick_3">
     <g id="line2d_11">
      <g>
       <use xlink:href="#maade16f771" x="54" y="163.051687" style="stroke: #000000; stroke-width: 0.8"/>
      </g>
     </g>
     <g id="text_12">
      <!-- 0.4 -->
      <g transform="translate(27.91625 167.610749) scale(0.12 -0.12)">
       <use xlink:href="#DejaVuSans-30"/>
       <use xlink:href="#DejaVuSans-2e" x="63.623047"/>
       <use xlink:href="#DejaVuSans-34" x="95.410156"/>
      </g>
     </g>
    </g>
    <g id="ytick_4">
     <g id="line2d_12">
      <g>
       <use xlink:href="#maade16f771" x="54" y="123.51567" style="stroke: #000000; stroke-width: 0.8"/>
      </g>
     </g>
     <g id="text_13">
      <!-- 0.6 -->
      <g transform="translate(27.91625 128.074732) scale(0.12 -0.12)">
       <use xlink:href="#DejaVuSans-30"/>
       <use xlink:href="#DejaVuSans-2e" x="63.623047"/>
       <use xlink:href="#DejaVuSans-36" x="95.410156"/>
      </g>
     </g>
    </g>
    <g id="ytick_5">
     <g id="line2d_13">
      <g>
       <use xlink:href="#maade16f771" x="54" y="83.979653" style="stroke: #000000; stroke-width: 0.8"/>
      </g>
     </g>
     <g id="text_14">
      <!-- 0.8 -->
      <g transform="translate(27.91625 88.538716) scale(0.12 -0.12)">
       <use xlink:href="#DejaVuSans-30"/>
       <use xlink:href="#DejaVuSans-2e" x="63.623047"/>
       <use xlink:href="#DejaVuSans-38" x="95.410156"/>
      </g>
     </g>
    </g>
    <g id="ytick_6">
     <g id="line2d_14">
      <g>
       <use xlink:href="#maade16f771" x="54" y="44.443636" style="stroke: #000000; stroke-width: 0.8"/>
      </g>
     </g>
     <g id="text_15">
      <!-- 1.0 -->
      <g transform="translate(27.91625 49.002699) scale(0.12 -0.12)">
       <defs>
        <path id="DejaVuSans-31" d="M 794 531 
L 1825 531 
L 1825 4091 
L 703 3866 
L 703 4441 
L 1819 4666 
L 2450 4666 
L 2450 531 
L 3481 531 
L 3481 0 
L 794 0 
L 794 531 
z
" transform="scale(0.015625)"/>
       </defs>
       <use xlink:href="#DejaVuSans-31"/>
       <use xlink:href="#DejaVuSans-2e" x="63.623047"/>
       <use xlink:href="#DejaVuSans-30" x="95.410156"/>
      </g>
     </g>
    </g>
    <g id="text_16">
     <!-- Normalized intensities -->
     <g transform="translate(21.004687 221.304844) rotate(-90) scale(0.14 -0.14)">
      <defs>
       <path id="DejaVuSans-4e" d="M 628 4666 
L 1478 4666 
L 3547 763 
L 3547 4666 
L 4159 4666 
L 4159 0 
L 3309 0 
L 1241 3903 
L 1241 0 
L 628 0 
L 628 4666 
z
" transform="scale(0.015625)"/>
       <path id="DejaVuSans-6c" d="M 603 4863 
L 1178 4863 
L 1178 0 
L 603 0 
L 603 4863 
z
" transform="scale(0.015625)"/>
       <path id="DejaVuSans-7a" d="M 353 3500 
L 3084 3500 
L 3084 2975 
L 922 459 
L 3084 459 
L 3084 0 
L 275 0 
L 275 525 
L 2438 3041 
L 353 3041 
L 353 3500 
z
" transform="scale(0.015625)"/>
       <path id="DejaVuSans-64" d="M 2906 2969 
L 2906 4863 
L 3481 4863 
L 3481 0 
L 2906 0 
L 2906 525 
Q 2725 213 2448 61 
Q 2172 -91 1784 -91 
Q 1150 -91 751 415 
Q 353 922 353 1747 
Q 353 2572 751 3078 
Q 1150 3584 1784 3584 
Q 2172 3584 2448 3432 
Q 2725 3281 2906 2969 
z
M 947 1747 
Q 947 1113 1208 752 
Q 1469 391 1925 391 
Q 2381 391 2643 752 
Q 2906 1113 2906 1747 
Q 2906 2381 2643 2742 
Q 2381 3103 1925 3103 
Q 1469 3103 1208 2742 
Q 947 2381 947 1747 
z
" transform="scale(0.015625)"/>
      </defs>
      <use xlink:href="#DejaVuSans-4e"/>
      <use xlink:href="#DejaVuSans-6f" x="74.804688"/>
      <use xlink:href="#DejaVuSans-72" x="135.986328"/>
      <use xlink:href="#DejaVuSans-6d" x="175.349609"/>
      <use xlink:href="#DejaVuSans-61" x="272.761719"/>
      <use xlink:href="#DejaVuSans-6c" x="334.041016"/>
      <use xlink:href="#DejaVuSans-69" x="361.824219"/>
      <use xlink:href="#DejaVuSans-7a" x="389.607422"/>
      <use xlink:href="#DejaVuSans-65" x="442.097656"/>
      <use xlink:href="#DejaVuSans-64" x="503.621094"/>
      <use xlink:href="#DejaVuSans-20" x="567.097656"/>
      <use xlink:href="#DejaVuSans-69" x="598.884766"/>
      <use xlink:href="#DejaVuSans-6e" x="626.667969"/>
      <use xlink:href="#DejaVuSans-74" x="690.046875"/>
      <use xlink:href="#DejaVuSans-65" x="729.255859"/>
      <use xlink:href="#DejaVuSans-6e" x="790.779297"/>
      <use xlink:href="#DejaVuSans-73" x="854.158203"/>
      <use xlink:href="#DejaVuSans-69" x="906.257812"/>
      <use xlink:href="#DejaVuSans-74" x="934.041016"/>
      <use xlink:href="#DejaVuSans-69" x="973.25"/>
      <use xlink:href="#DejaVuSans-65" x="1001.033203"/>
      <use xlink:href="#DejaVuSans-73" x="1062.556641"/>
     </g>
    </g>
   </g>
   <g id="line2d_15">
    <path d="M 69.218182 88.993691 
L 71.040719 85.280228 
L 72.863255 82.896608 
L 74.685792 80.225034 
L 76.508329 78.515958 
L 78.330866 77.377346 
L 80.153402 75.271908 
L 81.975939 75.214788 
L 83.798476 75.947 
L 85.621013 78.77006 
L 87.443549 79.614296 
L 89.266086 79.943846 
L 91.088623 79.816825 
L 92.911159 80.314544 
L 94.733696 80.454142 
L 96.556233 78.807672 
L 98.37877 78.166433 
L 100.201306 77.275157 
L 102.023843 75.731689 
L 103.84638 74.000159 
L 105.668917 74.472843 
L 107.491453 74.258853 
L 109.31399 73.932229 
L 111.136527 74.63963 
L 114.7816 81.754827 
L 116.604137 83.49739 
L 118.426674 83.890501 
L 120.249211 85.277749 
L 122.071747 87.720662 
L 123.894284 88.136775 
L 125.716821 88.863358 
L 127.539358 90.069534 
L 129.361894 90.323453 
L 131.184431 88.333961 
L 133.006968 86.511824 
L 134.829505 87.144732 
L 136.652041 85.673379 
L 138.474578 83.741332 
L 140.297115 81.372404 
L 142.119652 77.949151 
L 143.942188 74.842221 
L 147.587262 69.238955 
L 149.409799 66.785801 
L 151.232335 66.810408 
L 153.054872 66.17299 
L 154.877409 67.20037 
L 156.699946 66.565451 
L 160.345019 65.807798 
L 162.167556 65.818812 
L 163.990093 66.864053 
L 165.812629 69.668378 
L 167.635166 73.207374 
L 169.457703 75.158278 
L 171.28024 74.666188 
L 173.102776 74.006702 
L 174.925313 74.992914 
L 178.570386 79.978369 
L 180.392923 80.371643 
L 182.21546 78.650355 
L 185.860533 69.659397 
L 187.68307 64.169294 
L 189.505607 60.69896 
L 191.328144 58.493791 
L 193.15068 56.723287 
L 194.973217 53.693695 
L 198.618291 48.93243 
L 200.440827 48.371394 
L 202.263364 48.830261 
L 204.085901 48.739918 
L 205.908438 49.349417 
L 207.730974 48.503962 
L 211.376048 45.970462 
L 213.198585 44.874726 
L 215.021121 44.443636 
L 216.843658 45.483452 
L 218.666195 45.531204 
L 220.488732 47.821697 
L 224.133805 58.303778 
L 225.956342 64.709583 
L 227.778879 73.241918 
L 231.423952 95.179429 
L 238.714099 148.204028 
L 242.359173 170.543836 
L 244.181709 182.467947 
L 246.004246 192.356115 
L 249.64932 208.167426 
L 251.471856 214.295496 
L 255.11693 225.010343 
L 256.939467 228.947062 
L 258.762003 232.118245 
L 260.58454 234.414265 
L 264.229614 237.703141 
L 266.05215 238.994641 
L 267.874687 239.701086 
L 269.697224 240.075605 
L 271.51976 240.319038 
L 291.567665 240.542782 
L 295.212738 240.359272 
L 300.680348 240.14833 
L 309.793032 240.095904 
L 311.615569 240.175904 
L 318.905716 239.757535 
L 322.550789 239.667375 
L 326.195863 239.422458 
L 329.840936 239.206802 
L 333.48601 239.341483 
L 335.308547 239.23586 
L 337.131083 239.244394 
L 340.776157 239.059845 
L 342.598694 239.00407 
L 344.42123 238.828218 
L 348.066304 238.703371 
L 349.888841 238.526212 
L 355.356451 238.394445 
L 360.824061 238.025314 
L 364.469134 237.93014 
L 373.581818 237.47857 
L 373.581818 237.47857 
" clip-path="url(#pc22829fb73)" style="fill: none; stroke: #4e4f91; stroke-opacity: 0.2; stroke-linecap: square"/>
   </g>
   <g id="line2d_16">
    <path d="M 69.218182 241.240089 
L 71.040719 241.47149 
L 72.863255 242.109699 
L 78.330866 242.037478 
L 81.975939 242.110193 
L 83.798476 240.65954 
L 87.443549 240.624126 
L 89.266086 241.602898 
L 91.088623 241.235774 
L 92.911159 241.201709 
L 94.733696 240.695987 
L 96.556233 240.804699 
L 98.37877 240.77032 
L 100.201306 241.708644 
L 102.023843 241.904273 
L 103.84638 241.300894 
L 107.491453 241.270064 
L 109.31399 241.659748 
L 111.136527 241.533194 
L 112.959064 241.562586 
L 116.604137 241.783022 
L 118.426674 241.470097 
L 122.071747 240.356772 
L 123.894284 240.36567 
L 125.716821 239.087681 
L 129.361894 238.831831 
L 131.184431 240.031578 
L 133.006968 240.800745 
L 134.829505 241.236448 
L 136.652041 241.269795 
L 138.474578 240.860022 
L 140.297115 240.760522 
L 142.119652 241.019653 
L 145.764725 241.116276 
L 147.587262 241.285165 
L 149.409799 240.821957 
L 151.232335 239.742113 
L 153.054872 239.530125 
L 154.877409 240.014456 
L 156.699946 240.323291 
L 160.345019 240.587409 
L 162.167556 240.306932 
L 163.990093 240.336234 
L 165.812629 240.067666 
L 167.635166 240.374119 
L 169.457703 240.054813 
L 171.28024 240.447238 
L 174.925313 241.83749 
L 176.74785 241.949618 
L 178.570386 241.828682 
L 180.392923 241.140679 
L 182.21546 240.104967 
L 184.037997 239.623918 
L 185.860533 239.804311 
L 187.68307 240.706593 
L 191.328144 241.138657 
L 193.15068 241.12823 
L 194.973217 240.993542 
L 196.795754 241.081402 
L 202.263364 240.547097 
L 204.085901 240.285046 
L 205.908438 240.229903 
L 211.376048 239.296926 
L 215.021121 239.062783 
L 216.843658 238.45918 
L 218.666195 235.965803 
L 220.488732 232.20019 
L 224.133805 222.995044 
L 229.601415 208.704454 
L 231.423952 199.134161 
L 233.246489 185.892946 
L 236.891562 151.148322 
L 238.714099 135.248618 
L 242.359173 98.961751 
L 244.181709 82.581986 
L 246.004246 72.882802 
L 247.826783 67.944721 
L 249.64932 60.48194 
L 251.471856 53.856815 
L 253.294393 47.82352 
L 255.11693 44.443636 
L 256.939467 46.02327 
L 258.762003 53.473693 
L 260.58454 62.111863 
L 262.407077 69.463504 
L 264.229614 73.62788 
L 266.05215 78.798845 
L 267.874687 83.347197 
L 269.697224 85.743186 
L 271.51976 85.513672 
L 275.164834 78.311729 
L 276.987371 77.78111 
L 278.809907 78.988587 
L 280.632444 79.551159 
L 282.454981 78.55095 
L 284.277518 77.294712 
L 286.100054 77.5862 
L 287.922591 77.543192 
L 289.745128 75.405434 
L 291.567665 72.488039 
L 293.390201 71.000849 
L 295.212738 70.357877 
L 297.035275 72.199517 
L 298.857812 72.810042 
L 300.680348 75.567986 
L 302.502885 74.632897 
L 306.147959 72.004473 
L 307.970495 70.915865 
L 309.793032 71.285101 
L 313.438106 70.294869 
L 315.260642 70.742258 
L 317.083179 72.66686 
L 318.905716 76.333737 
L 320.728253 78.773544 
L 322.550789 78.120999 
L 324.373326 77.618108 
L 326.195863 72.751349 
L 328.0184 68.523921 
L 329.840936 66.155931 
L 331.663473 67.849445 
L 333.48601 71.918186 
L 335.308547 74.025339 
L 337.131083 74.384732 
L 338.95362 73.847776 
L 340.776157 71.525806 
L 342.598694 69.986079 
L 344.42123 68.019323 
L 346.243767 67.732419 
L 348.066304 65.288343 
L 349.888841 63.376999 
L 351.711377 59.771511 
L 353.533914 59.708199 
L 355.356451 58.45991 
L 357.178987 57.978411 
L 359.001524 57.300031 
L 360.824061 57.752899 
L 362.646598 59.976163 
L 364.469134 60.836488 
L 366.291671 64.228646 
L 368.114208 62.479723 
L 369.936745 59.513596 
L 371.759281 52.61958 
L 373.581818 52.32238 
L 373.581818 52.32238 
" clip-path="url(#pc22829fb73)" style="fill: none; stroke: #a00000; stroke-opacity: 0.2; stroke-linecap: square"/>
   </g>
   <g id="line2d_17">
    <path d="M 69.218182 242.028893 
L 72.863255 241.749452 
L 76.508329 241.871576 
L 78.330866 241.989497 
L 81.975939 242.048673 
L 85.621013 242.0795 
L 91.088623 241.82776 
L 94.733696 241.924231 
L 100.201306 242.116364 
L 102.023843 242.107525 
L 103.84638 241.875241 
L 107.491453 241.740021 
L 114.7816 242.097932 
L 116.604137 241.860259 
L 118.426674 241.81073 
L 120.249211 241.264836 
L 122.071747 241.308436 
L 123.894284 241.209163 
L 125.716821 240.237937 
L 127.539358 239.936399 
L 129.361894 240.06305 
L 131.184431 238.470747 
L 133.006968 237.895104 
L 134.829505 237.879852 
L 136.652041 240.160113 
L 138.474578 240.125028 
L 140.297115 239.062128 
L 143.942188 239.390397 
L 145.764725 240.064505 
L 147.587262 239.334994 
L 149.409799 239.035666 
L 151.232335 237.544792 
L 154.877409 238.472364 
L 158.522482 239.772129 
L 160.345019 240.195306 
L 163.990093 240.436321 
L 165.812629 240.676635 
L 167.635166 241.254488 
L 171.28024 241.519001 
L 173.102776 242.0968 
L 178.570386 242.074165 
L 180.392923 241.027432 
L 182.21546 238.616423 
L 184.037997 237.702109 
L 185.860533 238.609255 
L 187.68307 240.945513 
L 189.505607 241.80437 
L 191.328144 241.596016 
L 193.15068 241.12622 
L 194.973217 240.074799 
L 196.795754 240.386146 
L 198.618291 240.160598 
L 200.440827 240.669036 
L 202.263364 240.242679 
L 204.085901 240.162323 
L 205.908438 239.704061 
L 207.730974 239.083362 
L 211.376048 239.544588 
L 213.198585 240.414602 
L 215.021121 240.790945 
L 216.843658 240.193043 
L 218.666195 237.192917 
L 220.488732 230.460997 
L 224.133805 218.431821 
L 225.956342 214.903101 
L 227.778879 212.912843 
L 229.601415 213.113976 
L 231.423952 207.175271 
L 233.246489 192.839802 
L 235.069026 172.329033 
L 236.891562 155.134586 
L 238.714099 140.425523 
L 240.536636 118.649642 
L 242.359173 90.633787 
L 244.181709 64.84112 
L 246.004246 56.038695 
L 247.826783 52.403319 
L 249.64932 51.938158 
L 251.471856 44.443636 
L 253.294393 45.524322 
L 255.11693 50.155447 
L 256.939467 57.128812 
L 258.762003 69.62897 
L 260.58454 80.449462 
L 264.229614 104.874349 
L 267.874687 138.240276 
L 269.697224 148.009132 
L 271.51976 147.465825 
L 273.342297 147.230092 
L 275.164834 151.009743 
L 276.987371 159.59519 
L 278.809907 167.076184 
L 280.632444 167.373465 
L 282.454981 164.024266 
L 284.277518 163.133557 
L 286.100054 164.786868 
L 287.922591 171.316254 
L 289.745128 177.098827 
L 291.567665 178.763079 
L 293.390201 179.957805 
L 295.212738 182.658549 
L 297.035275 190.361156 
L 298.857812 194.60074 
L 300.680348 196.355803 
L 302.502885 195.935537 
L 304.325422 196.243488 
L 306.147959 197.396446 
L 307.970495 202.002725 
L 309.793032 204.040787 
L 311.615569 204.77876 
L 313.438106 204.088376 
L 315.260642 208.247549 
L 317.083179 211.524422 
L 318.905716 213.577305 
L 320.728253 214.248502 
L 322.550789 217.106132 
L 324.373326 217.204274 
L 326.195863 215.797313 
L 328.0184 214.95554 
L 329.840936 215.488176 
L 331.663473 217.693417 
L 333.48601 217.13793 
L 337.131083 219.949265 
L 338.95362 224.760289 
L 340.776157 225.909366 
L 342.598694 228.007142 
L 344.42123 228.472357 
L 346.243767 231.215192 
L 348.066304 230.374928 
L 349.888841 229.315639 
L 351.711377 227.577606 
L 353.533914 228.292463 
L 355.356451 227.993648 
L 357.178987 229.839316 
L 359.001524 231.364608 
L 360.824061 232.52152 
L 362.646598 229.731939 
L 364.469134 226.661239 
L 366.291671 225.894398 
L 368.114208 228.074373 
L 369.936745 229.44549 
L 371.759281 230.007529 
L 373.581818 231.469552 
L 373.581818 231.469552 
" clip-path="url(#pc22829fb73)" style="fill: none; stroke: #4e9160; stroke-linecap: square"/>
   </g>
   <g id="patch_3">
    <path d="M 54 252 
L 54 34.56 
" style="fill: none; stroke: #000000; stroke-width: 0.8; stroke-linejoin: miter; stroke-linecap: square"/>
   </g>
   <g id="patch_4">
    <path d="M 388.8 252 
L 388.8 34.56 
" style="fill: none; stroke: #000000; stroke-width: 0.8; stroke-linejoin: miter; stroke-linecap: square"/>
   </g>
   <g id="patch_5">
    <path d="M 54 252 
L 388.8 252 
" style="fill: none; stroke: #000000; stroke-width: 0.8; stroke-linejoin: miter; stroke-linecap: square"/>
   </g>
   <g id="patch_6">
    <path d="M 54 34.56 
L 388.8 34.56 
" style="fill: none; stroke: #000000; stroke-width: 0.8; stroke-linejoin: miter; stroke-linecap: square"/>
   </g>
   <g id="text_17">
    <!-- Secreted CCL20 -->
    <g transform="translate(173.459063 28.56) scale(0.12 -0.12)">
     <defs>
      <path id="DejaVuSans-53" d="M 3425 4513 
L 3425 3897 
Q 3066 4069 2747 4153 
Q 2428 4238 2131 4238 
Q 1616 4238 1336 4038 
Q 1056 3838 1056 3469 
Q 1056 3159 1242 3001 
Q 1428 2844 1947 2747 
L 2328 2669 
Q 3034 2534 3370 2195 
Q 3706 1856 3706 1288 
Q 3706 609 3251 259 
Q 2797 -91 1919 -91 
Q 1588 -91 1214 -16 
Q 841 59 441 206 
L 441 856 
Q 825 641 1194 531 
Q 1563 422 1919 422 
Q 2459 422 2753 634 
Q 3047 847 3047 1241 
Q 3047 1584 2836 1778 
Q 2625 1972 2144 2069 
L 1759 2144 
Q 1053 2284 737 2584 
Q 422 2884 422 3419 
Q 422 4038 858 4394 
Q 1294 4750 2059 4750 
Q 2388 4750 2728 4690 
Q 3069 4631 3425 4513 
z
" transform="scale(0.015625)"/>
      <path id="DejaVuSans-43" d="M 4122 4306 
L 4122 3641 
Q 3803 3938 3442 4084 
Q 3081 4231 2675 4231 
Q 1875 4231 1450 3742 
Q 1025 3253 1025 2328 
Q 1025 1406 1450 917 
Q 1875 428 2675 428 
Q 3081 428 3442 575 
Q 3803 722 4122 1019 
L 4122 359 
Q 3791 134 3420 21 
Q 3050 -91 2638 -91 
Q 1578 -91 968 557 
Q 359 1206 359 2328 
Q 359 3453 968 4101 
Q 1578 4750 2638 4750 
Q 3056 4750 3426 4639 
Q 3797 4528 4122 4306 
z
" transform="scale(0.015625)"/>
      <path id="DejaVuSans-4c" d="M 628 4666 
L 1259 4666 
L 1259 531 
L 3531 531 
L 3531 0 
L 628 0 
L 628 4666 
z
" transform="scale(0.015625)"/>
     </defs>
     <use xlink:href="#DejaVuSans-53"/>
     <use xlink:href="#DejaVuSans-65" x="63.476562"/>
     <use xlink:href="#DejaVuSans-63" x="125"/>
     <use xlink:href="#DejaVuSans-72" x="179.980469"/>
     <use xlink:href="#DejaVuSans-65" x="218.84375"/>
     <use xlink:href="#DejaVuSans-74" x="280.367188"/>
     <use xlink:href="#DejaVuSans-65" x="319.576172"/>
     <use xlink:href="#DejaVuSans-64" x="381.099609"/>
     <use xlink:href="#DejaVuSans-20" x="444.576172"/>
     <use xlink:href="#DejaVuSans-43" x="476.363281"/>
     <use xlink:href="#DejaVuSans-43" x="546.1875"/>
     <use xlink:href="#DejaVuSans-4c" x="616.011719"/>
     <use xlink:href="#DejaVuSans-32" x="671.724609"/>
     <use xlink:href="#DejaVuSans-30" x="735.347656"/>
    </g>
   </g>
  </g>
 </g>
 <defs>
  <clipPath id="pc22829fb73">
   <rect x="54" y="34.56" width="334.8" height="217.44"/>
  </clipPath>
 </defs>
</svg>
